#N canvas 27 25 1413 678 12;
#X obj 727 1089 dac~;
#X obj 248 88 metro;
#X obj 129 470 bng 19 250 50 0 empty empty empty 0 -10 0 12 #fcfcfc #000000 #000000;
#X msg 20 563 0.2 0 \, 0 1 0;
#X obj 20 590 vline~;
#X obj 119 589 vline~;
#X obj 120 614 osc~;
#X obj 234 599 vline~;
#X obj 193 620 pow~ 1.5;
#X obj 119 641 *~;
#X obj 283 16 loadbang;
#X floatatom 284 67 5 0 0 0 - - - 0;
#X obj 247 116 bng 19 250 50 0 empty empty empty 0 -10 0 12 #fcfcfc #000000 #000000;
#X obj 248 141 int 1;
#X obj 294 162 + 1;
#X floatatom 249 166 5 0 0 0 - - - 0;
#X obj 199 44 tgl 19 0 empty empty empty 0 -10 0 12 #fcfcfc #000000 #000000 0 1;
#X obj 249 189 % 8;
#X obj 249 214 + 1;
#X floatatom 248 237 5 0 0 0 - - - 0;
#X obj 30 271 sel 1;
#X obj 31 294 bng 19 250 50 0 empty empty empty 0 -10 0 12 #fcfcfc #000000 #000000;
#X obj 93 294 bng 19 250 50 0 empty empty empty 0 -10 0 12 #fcfcfc #000000 #000000;
#X obj 92 271 sel 2;
#X obj 154 294 bng 19 250 50 0 empty empty empty 0 -10 0 12 #fcfcfc #000000 #000000;
#X obj 153 271 sel 3;
#X obj 217 292 bng 19 250 50 0 empty empty empty 0 -10 0 12 #fcfcfc #000000 #000000;
#X obj 216 269 sel 4;
#X obj 278 292 bng 19 250 50 0 empty empty empty 0 -10 0 12 #fcfcfc #000000 #000000;
#X obj 277 269 sel 5;
#X obj 334 293 bng 19 250 50 0 empty empty empty 0 -10 0 12 #fcfcfc #000000 #000000;
#X obj 394 294 bng 19 250 50 0 empty empty empty 0 -10 0 12 #fcfcfc #000000 #000000;
#X obj 457 293 bng 19 250 50 0 empty empty empty 0 -10 0 12 #fcfcfc #000000 #000000;
#X obj 333 270 sel 6;
#X obj 394 270 sel 7;
#X obj 457 268 sel 8;
#X obj 540 651 vline~;
#X obj 538 675 pow~ 1.5;
#X obj 396 450 bng 19 250 50 0 empty empty empty 0 -10 0 12 #fcfcfc #000000 #000000;
#X obj 1682 558 *~;
#X obj 1768 517 vline~;
#X obj 1766 541 pow~ 1.5;
#X obj 1677 457 bng 19 250 50 0 empty empty empty 0 -10 0 12 #fcfcfc #000000 #000000;
#X msg 284 40 111;
#X obj 503 764 *~;
#X obj 1641 516 noise~;
#X obj 2055 515 vline~;
#X obj 2053 539 pow~ 1.5;
#X obj 1964 439 bng 19 250 50 0 empty empty empty 0 -10 0 12 #fcfcfc #000000 #000000;
#X obj 1920 490 noise~;
#X obj 2007 568 *~;
#X obj 492 674 noise~;
#X obj 493 700 lop~ 1000;
#X obj 606 677 vline~;
#X msg 606 650 0.5 0 \, 0 1 0;
#X obj 1634 760 *~;
#X floatatom 2074 603 5 0 0 0 - - - 0;
#X obj 2156 541 loadbang;
#X obj 857 590 vline~;
#X obj 855 614 pow~ 1.5;
#X obj 784 511 bng 19 250 50 0 empty empty empty 0 -10 0 12 #fcfcfc #000000 #000000;
#X obj 809 643 *~;
#X obj 1053 585 vline~;
#X obj 1051 609 pow~ 1.5;
#X obj 955 506 bng 19 250 50 0 empty empty empty 0 -10 0 12 #fcfcfc #000000 #000000;
#X obj 1005 638 *~;
#X obj 1263 577 vline~;
#X obj 1261 601 pow~ 1.5;
#X obj 1162 501 bng 19 250 50 0 empty empty empty 0 -10 0 12 #fcfcfc #000000 #000000;
#X obj 1215 630 *~;
#X msg 1191 555 1 4 \, 0.9 30 4 \, 0 20 30;
#X obj 1466 575 vline~;
#X obj 1464 599 pow~ 1.5;
#X obj 1378 507 bng 19 250 50 0 empty empty empty 0 -10 0 12 #fcfcfc #000000 #000000;
#X obj 1418 628 *~;
#X msg 1394 553 1 2 \, 0.9 10 2 \, 0 5 30;
#X msg 981 563 1 10 \, 0.9 30 4 \, 0 20 30;
#X msg 785 568 1 4 \, 0.9 10 4 \, 0 20 10;
#X text 109 237 Sequencer;
#X text 625 554 A Minor chord;
#X text 181 511 Sub kick;
#X text 816 528 Bleeps/Bloops;
#X text 994 526 Bleeps/Bloops;
#X text 1223 523 Bleeps/Bloops;
#X text 1425 522 Bleeps/Bloops;
#X text 1737 464 Open Hat;
#X text 2020 461 Closed Hat;
#X text 291 207 Metronome \, counts from 1 to 8 in a loop;
#X obj 783 55 loadbang;
#X obj 700 966 *~;
#X floatatom 786 117 5 0 0 0 - - - 0;
#X text 762 1112 DAC Out;
#X text 665 95 Volume control;
#X text 327 69 BPM: 135;
#X text 78 44 START DSP HERE:;
#X text 673 118 comment;
#X obj 2409 442 vline~;
#X obj 2262 528 +~;
#X floatatom 2259 501 5 0 0 0 - - - 0;
#X obj 2317 528 *~;
#X obj 2290 554 osc~;
#X floatatom 2365 501 5 0 0 0 - - - 0;
#X obj 2333 554 *~;
#X obj 2411 501 pow~ 1.5;
#X msg 2254 421 1 3 \, 0 50 3;
#X obj 2269 603 hip~ 1000;
#X obj 2257 449 loadbang;
#X obj 2339 444 loadbang;
#X obj 2245 378 bng 19 250 50 0 empty empty empty 0 -10 0 12 #fcfcfc #000000 #000000;
#X floatatom 365 555 5 0 0 0 - - - 0;
#X floatatom 426 555 5 0 0 0 - - - 0;
#X msg 362 525 523;
#X obj 360 502 loadbang;
#X obj 424 502 loadbang;
#X msg 426 530 440;
#X obj 429 583 +~;
#X obj 399 582 +~;
#X obj 483 581 *~;
#X obj 561 504 loadbang;
#X floatatom 561 554 5 0 0 0 - - - 0;
#X obj 501 725 *~ 0.4;
#X msg 536 605 1 4 \, 0 200 4;
#X obj 617 804 *~ 1;
#X msg 2156 565 0.15;
#X obj 1166 591 phasor~ 493;
#X obj 968 590 phasor~ 523;
#X obj 768 595 phasor~ 783;
#X obj 1378 584 phasor~ 987;
#X msg 1983 485 1 3 \, 0 30 3;
#X obj 366 617 phasor~;
#X obj 488 553 osc~;
#X obj 427 617 osc~;
#X obj 621 862 *~ 0.14;
#X obj 616 834 clip~ -0.8 0.3;
#X msg 785 82 0.5;
#X obj 241 762 clip~ -0.6 0.6;
#X obj 2271 579 clip~ -0.03 0.03;
#X msg 2364 470 100;
#X obj 2294 480 osc~ 100;
#X msg 562 529 3000;
#X obj 488 529 +~ 500;
#X obj 489 481 osc~ 0.2;
#X obj 491 502 *~ 110;
#X obj 885 751 *~ 0.5;
#X msg 2258 476 500;
#X obj 253 801 *~ 0.6;
#X obj 2176 472 +~ 500;
#X obj 2172 444 *~ 50;
#X obj 2170 423 osc~ 0.02;
#X obj 2275 670 *~ 3;
#X msg 1713 489 1 5 \, 0.1 100 5 \, 0 50 100;
#X obj 1922 535 bp~ 8000 5;
#X obj 1694 604 bp~ 6000 5;
#X obj 1949 610 *~ 0.4;
#X obj 892 788 bp~ 5000 7;
#X msg 121 558 200 0 \, 55 30 0;
#X msg 233 561 1 4 \, 1 30 4 \, 0 50 30, f 15;
#X connect 1 0 12 0;
#X connect 2 0 3 0;
#X connect 2 0 155 0;
#X connect 2 0 156 0;
#X connect 3 0 4 0;
#X connect 4 0 145 0;
#X connect 5 0 6 0;
#X connect 6 0 9 0;
#X connect 7 0 8 0;
#X connect 8 0 9 1;
#X connect 9 0 135 0;
#X connect 10 0 43 0;
#X connect 11 0 1 1;
#X connect 12 0 13 0;
#X connect 13 0 14 0;
#X connect 13 0 15 0;
#X connect 14 0 13 1;
#X connect 15 0 17 0;
#X connect 16 0 1 0;
#X connect 17 0 18 0;
#X connect 18 0 19 0;
#X connect 19 0 20 0;
#X connect 19 0 23 0;
#X connect 19 0 25 0;
#X connect 19 0 27 0;
#X connect 19 0 29 0;
#X connect 19 0 33 0;
#X connect 19 0 34 0;
#X connect 19 0 35 0;
#X connect 20 0 21 0;
#X connect 21 0 48 0;
#X connect 21 0 108 0;
#X connect 21 0 2 0;
#X connect 22 0 48 0;
#X connect 22 0 64 0;
#X connect 22 0 108 0;
#X connect 23 0 22 0;
#X connect 24 0 48 0;
#X connect 24 0 68 0;
#X connect 24 0 108 0;
#X connect 25 0 24 0;
#X connect 26 0 73 0;
#X connect 26 0 48 0;
#X connect 27 0 26 0;
#X connect 28 0 48 0;
#X connect 28 0 60 0;
#X connect 28 0 108 0;
#X connect 28 0 42 0;
#X connect 28 0 2 0;
#X connect 29 0 28 0;
#X connect 30 0 68 0;
#X connect 30 0 48 0;
#X connect 31 0 48 0;
#X connect 31 0 73 0;
#X connect 31 0 108 0;
#X connect 31 0 38 0;
#X connect 32 0 48 0;
#X connect 32 0 64 0;
#X connect 33 0 30 0;
#X connect 34 0 31 0;
#X connect 35 0 32 0;
#X connect 36 0 37 0;
#X connect 37 0 44 1;
#X connect 38 0 121 0;
#X connect 38 0 54 0;
#X connect 39 0 152 0;
#X connect 40 0 41 0;
#X connect 41 0 39 1;
#X connect 42 0 150 0;
#X connect 43 0 11 0;
#X connect 44 0 122 0;
#X connect 45 0 39 0;
#X connect 46 0 47 0;
#X connect 47 0 50 1;
#X connect 48 0 128 0;
#X connect 49 0 151 0;
#X connect 50 0 153 0;
#X connect 51 0 52 0;
#X connect 52 0 120 0;
#X connect 53 0 122 0;
#X connect 54 0 53 0;
#X connect 55 0 89 0;
#X connect 56 0 55 1;
#X connect 57 0 123 0;
#X connect 58 0 59 0;
#X connect 59 0 61 1;
#X connect 60 0 77 0;
#X connect 61 0 143 0;
#X connect 62 0 63 0;
#X connect 63 0 65 1;
#X connect 64 0 76 0;
#X connect 65 0 143 0;
#X connect 66 0 67 0;
#X connect 67 0 69 1;
#X connect 68 0 70 0;
#X connect 69 0 143 0;
#X connect 70 0 66 0;
#X connect 71 0 72 0;
#X connect 72 0 74 1;
#X connect 73 0 75 0;
#X connect 74 0 143 0;
#X connect 75 0 71 0;
#X connect 76 0 62 0;
#X connect 77 0 58 0;
#X connect 88 0 134 0;
#X connect 89 0 0 0;
#X connect 89 0 0 1;
#X connect 90 0 89 1;
#X connect 96 0 103 0;
#X connect 97 0 100 0;
#X connect 98 0 97 0;
#X connect 99 0 97 1;
#X connect 100 0 102 0;
#X connect 101 0 99 1;
#X connect 102 0 136 0;
#X connect 103 0 102 1;
#X connect 104 0 96 0;
#X connect 105 0 149 0;
#X connect 106 0 144 0;
#X connect 107 0 137 0;
#X connect 108 0 104 0;
#X connect 109 0 116 0;
#X connect 110 0 115 0;
#X connect 111 0 109 0;
#X connect 112 0 111 0;
#X connect 113 0 114 0;
#X connect 114 0 110 0;
#X connect 115 0 131 0;
#X connect 116 0 129 0;
#X connect 117 0 116 1;
#X connect 117 0 115 1;
#X connect 118 0 139 0;
#X connect 119 0 117 1;
#X connect 120 0 44 0;
#X connect 121 0 36 0;
#X connect 122 0 133 0;
#X connect 123 0 56 0;
#X connect 124 0 69 0;
#X connect 125 0 65 0;
#X connect 126 0 61 0;
#X connect 127 0 74 0;
#X connect 128 0 46 0;
#X connect 129 0 44 0;
#X connect 130 0 117 0;
#X connect 131 0 44 0;
#X connect 132 0 89 0;
#X connect 133 0 132 0;
#X connect 134 0 90 0;
#X connect 135 0 145 0;
#X connect 136 0 105 0;
#X connect 137 0 101 0;
#X connect 138 0 99 0;
#X connect 139 0 119 0;
#X connect 140 0 130 0;
#X connect 141 0 142 0;
#X connect 142 0 140 0;
#X connect 143 0 154 0;
#X connect 144 0 98 0;
#X connect 145 0 89 0;
#X connect 146 0 97 0;
#X connect 147 0 146 0;
#X connect 148 0 147 0;
#X connect 149 0 89 0;
#X connect 150 0 40 0;
#X connect 151 0 50 0;
#X connect 152 0 55 0;
#X connect 153 0 55 0;
#X connect 154 0 89 0;
#X connect 155 0 5 0;
#X connect 156 0 7 0;
