#N canvas 0 27 1269 663 12;
#X obj 1281 502 dac~;
#X obj 800 98 metro;
#X obj 157 745 vline~;
#X obj 256 744 vline~;
#X obj 257 769 osc~;
#X obj 371 754 vline~;
#X obj 330 775 pow~ 1.5;
#X obj 256 796 *~;
#X obj 871 -2 loadbang;
#X floatatom 836 77 5 0 0 0 - - - 0;
#X obj 799 126 bng 19 250 50 0 empty empty empty 0 -10 0 12 #fcfcfc #000000 #000000;
#X obj 800 151 int 1;
#X obj 846 172 + 1;
#X floatatom 801 176 5 0 0 0 - - - 0;
#X obj 751 54 tgl 19 0 empty empty empty 0 -10 0 12 #fcfcfc #000000 #000000 0 1;
#X obj 801 199 % 8;
#X obj 801 224 + 1;
#X floatatom 800 247 5 0 0 0 - - - 0;
#X obj 582 281 sel 1;
#X obj 583 304 bng 19 250 50 0 empty empty empty 0 -10 0 12 #fcfcfc #000000 #000000;
#X obj 645 304 bng 19 250 50 0 empty empty empty 0 -10 0 12 #fcfcfc #000000 #000000;
#X obj 644 281 sel 2;
#X obj 706 304 bng 19 250 50 0 empty empty empty 0 -10 0 12 #fcfcfc #000000 #000000;
#X obj 705 281 sel 3;
#X obj 769 302 bng 19 250 50 0 empty empty empty 0 -10 0 12 #fcfcfc #000000 #000000;
#X obj 768 279 sel 4;
#X obj 830 302 bng 19 250 50 0 empty empty empty 0 -10 0 12 #fcfcfc #000000 #000000;
#X obj 829 279 sel 5;
#X obj 886 303 bng 19 250 50 0 empty empty empty 0 -10 0 12 #fcfcfc #000000 #000000;
#X obj 946 304 bng 19 250 50 0 empty empty empty 0 -10 0 12 #fcfcfc #000000 #000000;
#X obj 1009 303 bng 19 250 50 0 empty empty empty 0 -10 0 12 #fcfcfc #000000 #000000;
#X obj 885 280 sel 6;
#X obj 946 280 sel 7;
#X obj 1009 278 sel 8;
#X obj 1888 766 vline~;
#X obj 1886 790 pow~ 1.5;
#X obj 1810 685 bng 19 250 50 0 empty empty empty 0 -10 0 12 #fcfcfc #000000 #000000;
#X obj 1753 741 noise~;
#X obj 1840 819 *~;
#X obj 1827 873 *~;
#X floatatom 1979 795 5 0 0 0 - - - 0;
#X obj 1977 731 loadbang;
#X text 661 247 Sequencer;
#X text 246 603 Sub kick;
#X text 1840 686 Closed Hat;
#X text 843 217 Metronome \, counts from 1 to 8 in a loop;
#X obj 1280 306 loadbang;
#X obj 1284 464 *~;
#X floatatom 1283 368 5 0 0 0 - - - 0;
#X text 1277 527 DAC Out;
#X text 630 54 START DSP HERE:;
#X obj 1448 687 bng 19 250 50 0 empty empty empty 0 -10 0 12 #fcfcfc #000000 #000000;
#X msg 157 718 0.3 0 \, 0 10 0;
#X obj 758 726 bng 19 250 50 0 empty empty empty 0 -10 0 12 #fcfcfc #000000 #000000;
#X obj 648 793 vline~;
#X obj 747 792 vline~;
#X obj 748 817 osc~;
#X obj 862 802 vline~;
#X obj 821 823 pow~ 1.5;
#X obj 747 844 *~;
#X msg 648 766 0.3 0 \, 0 10 0;
#X obj 1752 785 bp~ 6000 8;
#X obj 581 345 s one;
#X obj 224 633 r one;
#X obj 265 662 bng 19 250 50 0 empty empty empty 0 -10 0 12 #fcfcfc #000000 #000000;
#X obj 637 343 s two;
#X obj 698 343 s three;
#X obj 765 343 s four;
#X obj 826 342 s five;
#X obj 885 343 s six;
#X obj 940 341 s seven;
#X obj 1007 337 s eight;
#X obj 260 915 s~ out1;
#X obj 1199 452 r~ out1;
#X obj 861 928 s~ out2;
#X obj 1208 415 r~ out2;
#X obj 1276 413 r~ out3;
#X obj 1345 412 r~ out4;
#X obj 1342 447 r~ out5;
#X obj 1340 475 r~ out6;
#X obj 1855 267 vline~;
#X obj 1856 295 pow~ 1.5;
#X obj 1839 343 *~;
#X obj 1769 170 bng 19 250 50 0 empty empty empty 0 -10 0 12 #fcfcfc #000000 #000000;
#X obj 1843 511 s~ out3;
#X obj 1618 123 r two;
#X obj 1676 123 r three;
#X obj 1740 124 r four;
#X obj 1715 340 vcf~ 1, f 9;
#X obj 1747 277 vline~;
#X obj 1680 266 mtof;
#X floatatom 2127 239 5 0 0 0 - - - 0;
#X msg 258 713 250 0 \, 55 40 0;
#X obj 1856 124 r six;
#X obj 1914 124 r seven;
#X obj 1978 125 r eight;
#X obj 2142 469 * -1;
#X obj 1839 406 clip~;
#X floatatom 389 876 5 0 0 0 - - - 0;
#X msg 388 847 500;
#X obj 388 820 loadbang;
#X obj 251 856 lop~;
#X obj 1747 640 r one;
#X obj 1807 642 r two;
#X obj 1865 642 r three;
#X obj 1929 643 r four;
#X obj 1985 641 r five;
#X obj 2045 643 r six;
#X obj 2103 643 r seven;
#X obj 2167 644 r eight;
#X obj 1667 951 s~ out4;
#X text 1976 697 Volume;
#X obj 1845 438 *~;
#X obj 1459 983 s~ out6;
#X obj 1597 737 vline~;
#X obj 1450 823 +~;
#X floatatom 1447 796 5 0 0 0 - - - 0;
#X obj 1505 823 *~;
#X obj 1478 849 osc~;
#X floatatom 1553 796 5 0 0 0 - - - 0;
#X obj 1521 849 *~;
#X obj 1588 832 pow~ 1.5;
#X obj 1445 744 loadbang;
#X obj 1527 739 loadbang;
#X msg 1442 716 1 3 \, 0 40 3;
#X obj 1482 775 osc~ 500;
#X msg 1843 236 1 4 \, 0.9 70 4 \, 0 30 70;
#X text 1229 265 Master Volume control;
#X msg 1494 238 33;
#X msg 1622 236 36;
#X obj 2035 351 loadbang;
#X text 1761 83 Acid Synth;
#X text 2054 51 Cutoff;
#X obj 2127 188 loadbang;
#X text 2134 161 Resonance;
#X text 2034 324 Volume;
#X text 2119 331 Distortion;
#X text 1447 600 Beep;
#X msg 871 757 1 4 \, 0 30 4;
#X msg 2125 212 6;
#X msg 1816 736 1 5 \, 0 30 5;
#X msg 749 761 350 0 \, 55 40 0;
#X obj 1479 193 select 0 1 2 3 4 5 6 7 8 9 10 11 12;
#X obj 382 557 bng 19 250 50 0 empty empty empty 0 -10 0 12 #fcfcfc #000000 #000000;
#X obj 276 514 r two;
#X obj 334 514 r three;
#X obj 409 509 r five;
#X obj 469 511 r six;
#X obj 527 511 r seven;
#X obj 591 512 r eight;
#X floatatom 1428 168 5 0 0 0 - - - 0;
#X msg 381 709 1 4 \, 0.4 60 4 \, 0 300 60, f 15;
#X obj 1025 862 *~;
#X obj 1111 821 vline~;
#X obj 1109 845 pow~ 1.5;
#X obj 1043 755 bng 19 250 50 0 empty empty empty 0 -10 0 12 #fcfcfc #000000 #000000;
#X obj 988 791 noise~;
#X obj 924 823 noise~;
#X obj 365 612 select 0;
#X text 854 642 Snare;
#X obj 1057 644 bng 19 250 50 0 empty empty empty 0 -10 0 12 #fcfcfc #000000 #000000;
#X obj 846 595 r one;
#X obj 906 597 r two;
#X obj 964 597 r three;
#X obj 1028 598 r four;
#X obj 1084 596 r five;
#X obj 1144 598 r six;
#X obj 1202 598 r seven;
#X obj 1266 599 r eight;
#X obj 1045 697 select 0;
#X obj 1457 876 clip~ -0.06 0.06;
#X obj 1465 916 hip~ 2000;
#X msg 1552 765 1000;
#X obj 47 36 tgl 15 0 empty empty empty 17 7 0 10 #fcfcfc #000000 #000000 0 1;
#X msg 47 61 \; pd dsp \$1;
#X floatatom 2134 413 5 0 0 0 - - - 0;
#X text 790 50 Tempo (ms);
#X obj 1836 375 *~ 4;
#X obj 361 585 random 20;
#X msg 1282 333 0.9;
#X msg 1446 771 100;
#X obj 264 890 *~ 1;
#X obj 2133 360 loadbang;
#X msg 2133 384 400;
#X obj 272 631 r five;
#X msg 872 21 120;
#X msg 2033 377 0.5;
#X obj 1041 670 random 2;
#X obj 1463 951 *~ 3.5;
#X obj 1397 639 r three;
#X obj 1539 642 r seven;
#X obj 2070 75 vsl 19 162 0 127 0 0 empty empty empty 0 -9 0 12 #fcfcfc #000000 #000000 0 1;
#X obj 1764 309 *~;
#X msg 1697 236 45;
#X msg 1662 237 31;
#X obj 2038 274 + 50;
#X obj 2038 250 * 50;
#X obj 246 825 clip~ -0.5 0.5;
#X msg 1741 242 1 1 \, 0 100 1;
#X obj 1694 301 phasor~;
#X obj 1570 121 r one;
#X obj 1801 122 r five;
#X obj 1466 137 random 14;
#X obj 1845 469 hip~ 50;
#X obj 1870 940 bp~, f 9;
#X obj 2069 924 snapshot~;
#X obj 2027 856 *~ 5000;
#X obj 2023 881 +~ 7000;
#X obj 2106 883 metro 1;
#X obj 2107 827 loadbang;
#X obj 2102 854 tgl 19 0 empty empty empty 0 -10 0 12 #fcfcfc #000000 #000000 0 1;
#X obj 801 663 r eight;
#X obj 739 662 r seven;
#X obj 746 893 bp~ 1000 9;
#X obj 984 828 bp~ 6000 5;
#X obj 931 849 bp~ 500 50;
#X obj 1727 900 clip~ -0.01 0.01;
#X msg 1039 799 1 5 \, 0.3 15 5 \, 0 70 15;
#X obj 1030 894 *~ 0.5;
#X obj 744 869 *~ 0.5;
#X msg 2061 791 0.1;
#X obj 2027 830 osc~;
#X msg 1978 764 0.15;
#X obj 1679 916 *~ 10;
#X msg 1938 899 200;
#X obj 2139 442 * 0.05;
#X connect 1 0 10 0;
#X connect 2 0 197 0;
#X connect 3 0 4 0;
#X connect 4 0 7 0;
#X connect 5 0 6 0;
#X connect 6 0 7 1;
#X connect 7 0 197 0;
#X connect 8 0 185 0;
#X connect 9 0 1 1;
#X connect 10 0 11 0;
#X connect 11 0 12 0;
#X connect 11 0 13 0;
#X connect 12 0 11 1;
#X connect 13 0 15 0;
#X connect 14 0 1 0;
#X connect 15 0 16 0;
#X connect 16 0 17 0;
#X connect 17 0 18 0;
#X connect 17 0 21 0;
#X connect 17 0 23 0;
#X connect 17 0 25 0;
#X connect 17 0 27 0;
#X connect 17 0 31 0;
#X connect 17 0 32 0;
#X connect 17 0 33 0;
#X connect 18 0 19 0;
#X connect 19 0 62 0;
#X connect 20 0 65 0;
#X connect 21 0 20 0;
#X connect 22 0 66 0;
#X connect 23 0 22 0;
#X connect 24 0 67 0;
#X connect 25 0 24 0;
#X connect 26 0 68 0;
#X connect 27 0 26 0;
#X connect 28 0 69 0;
#X connect 29 0 70 0;
#X connect 30 0 71 0;
#X connect 31 0 28 0;
#X connect 32 0 29 0;
#X connect 33 0 30 0;
#X connect 34 0 35 0;
#X connect 35 0 38 1;
#X connect 36 0 140 0;
#X connect 37 0 61 0;
#X connect 38 0 39 0;
#X connect 39 0 204 0;
#X connect 39 0 110 0;
#X connect 40 0 39 1;
#X connect 41 0 222 0;
#X connect 46 0 179 0;
#X connect 47 0 0 0;
#X connect 47 0 0 1;
#X connect 48 0 47 1;
#X connect 51 0 124 0;
#X connect 52 0 2 0;
#X connect 53 0 60 0;
#X connect 53 0 141 0;
#X connect 53 0 138 0;
#X connect 54 0 219 0;
#X connect 55 0 56 0;
#X connect 56 0 59 0;
#X connect 57 0 58 0;
#X connect 58 0 59 1;
#X connect 59 0 219 0;
#X connect 60 0 54 0;
#X connect 61 0 38 0;
#X connect 63 0 64 0;
#X connect 64 0 92 0;
#X connect 64 0 52 0;
#X connect 64 0 151 0;
#X connect 73 0 47 0;
#X connect 75 0 47 0;
#X connect 76 0 47 0;
#X connect 77 0 47 0;
#X connect 78 0 47 0;
#X connect 79 0 47 0;
#X connect 80 0 81 0;
#X connect 81 0 82 1;
#X connect 82 0 177 0;
#X connect 83 0 126 0;
#X connect 83 0 198 0;
#X connect 83 0 202 0;
#X connect 85 0 83 0;
#X connect 86 0 83 0;
#X connect 87 0 83 0;
#X connect 88 1 82 0;
#X connect 89 0 192 0;
#X connect 90 0 199 0;
#X connect 91 0 88 2;
#X connect 92 0 3 0;
#X connect 93 0 83 0;
#X connect 94 0 83 0;
#X connect 95 0 83 0;
#X connect 96 0 97 1;
#X connect 97 0 112 0;
#X connect 98 0 101 1;
#X connect 99 0 98 0;
#X connect 100 0 99 0;
#X connect 101 0 181 0;
#X connect 102 0 36 0;
#X connect 103 0 36 0;
#X connect 104 0 36 0;
#X connect 105 0 36 0;
#X connect 106 0 36 0;
#X connect 107 0 36 0;
#X connect 108 0 36 0;
#X connect 109 0 36 0;
#X connect 112 0 203 0;
#X connect 114 0 121 0;
#X connect 115 0 118 0;
#X connect 116 0 115 0;
#X connect 117 0 115 1;
#X connect 118 0 120 0;
#X connect 119 0 117 1;
#X connect 120 0 170 0;
#X connect 121 0 120 1;
#X connect 122 0 180 0;
#X connect 123 0 172 0;
#X connect 124 0 114 0;
#X connect 125 0 117 0;
#X connect 126 0 80 0;
#X connect 128 0 90 0;
#X connect 129 0 90 0;
#X connect 130 0 186 0;
#X connect 133 0 139 0;
#X connect 138 0 57 0;
#X connect 139 0 91 0;
#X connect 140 0 34 0;
#X connect 141 0 55 0;
#X connect 142 0 128 0;
#X connect 142 1 128 0;
#X connect 142 2 128 0;
#X connect 142 3 128 0;
#X connect 142 4 128 0;
#X connect 142 5 128 0;
#X connect 142 6 128 0;
#X connect 142 7 128 0;
#X connect 142 8 128 0;
#X connect 142 9 128 0;
#X connect 142 10 129 0;
#X connect 142 11 129 0;
#X connect 142 12 193 0;
#X connect 142 13 193 0;
#X connect 143 0 178 0;
#X connect 144 0 143 0;
#X connect 145 0 143 0;
#X connect 146 0 143 0;
#X connect 147 0 143 0;
#X connect 148 0 143 0;
#X connect 149 0 143 0;
#X connect 151 0 5 0;
#X connect 152 0 218 0;
#X connect 153 0 154 0;
#X connect 154 0 152 1;
#X connect 155 0 217 0;
#X connect 156 0 214 0;
#X connect 157 0 215 0;
#X connect 160 0 187 0;
#X connect 161 0 160 0;
#X connect 162 0 160 0;
#X connect 163 0 160 0;
#X connect 164 0 160 0;
#X connect 165 0 160 0;
#X connect 166 0 160 0;
#X connect 167 0 160 0;
#X connect 168 0 160 0;
#X connect 169 0 53 0;
#X connect 169 0 155 0;
#X connect 170 0 171 0;
#X connect 171 0 188 0;
#X connect 172 0 119 0;
#X connect 173 0 174 0;
#X connect 175 0 225 0;
#X connect 177 0 97 0;
#X connect 178 0 158 0;
#X connect 179 0 48 0;
#X connect 180 0 116 0;
#X connect 181 0 72 0;
#X connect 182 0 183 0;
#X connect 183 0 175 0;
#X connect 184 0 64 0;
#X connect 185 0 9 0;
#X connect 186 0 112 1;
#X connect 187 0 169 0;
#X connect 188 0 113 0;
#X connect 189 0 51 0;
#X connect 190 0 51 0;
#X connect 191 0 196 0;
#X connect 192 0 88 1;
#X connect 193 0 90 0;
#X connect 194 0 90 0;
#X connect 195 0 192 1;
#X connect 196 0 195 0;
#X connect 197 0 101 0;
#X connect 198 0 89 0;
#X connect 199 0 88 0;
#X connect 200 0 198 0;
#X connect 200 0 126 0;
#X connect 200 0 194 0;
#X connect 201 0 194 0;
#X connect 201 0 198 0;
#X connect 201 0 126 0;
#X connect 202 0 142 0;
#X connect 202 0 150 0;
#X connect 203 0 84 0;
#X connect 204 0 216 0;
#X connect 205 0 204 1;
#X connect 206 0 207 0;
#X connect 207 0 205 0;
#X connect 208 0 205 0;
#X connect 209 0 210 0;
#X connect 210 0 208 0;
#X connect 211 0 53 0;
#X connect 211 0 155 0;
#X connect 212 0 155 0;
#X connect 212 0 53 0;
#X connect 213 0 74 0;
#X connect 214 0 152 0;
#X connect 215 0 152 0;
#X connect 216 0 223 0;
#X connect 217 0 153 0;
#X connect 218 0 74 0;
#X connect 219 0 213 0;
#X connect 220 0 221 0;
#X connect 221 0 206 0;
#X connect 222 0 40 0;
#X connect 223 0 110 0;
#X connect 224 0 204 2;
#X connect 225 0 97 2;
#X connect 225 0 96 0;
